<svg width="97" height="26" viewBox="0 0 97 26" fill="none" xmlns="http://www.w3.org/2000/svg">
<path d="M15.695 0.885V3.58L3.76 22.165H15.695L15.31 25H0.05V22.34L12.09 3.685H1.31V0.885H15.695ZM26.755 6.135C29.345 6.135 31.3517 6.99833 32.775 8.725C34.2217 10.4517 34.945 12.7967 34.945 15.76C34.945 17.6733 34.6183 19.365 33.965 20.835C33.3117 22.2817 32.3667 23.4133 31.13 24.23C29.8933 25.0233 28.4233 25.42 26.72 25.42C24.13 25.42 22.1117 24.5567 20.665 22.83C19.2183 21.1033 18.495 18.7583 18.495 15.795C18.495 13.8817 18.8217 12.2017 19.475 10.755C20.1283 9.285 21.0733 8.15333 22.31 7.36C23.5467 6.54333 25.0283 6.135 26.755 6.135ZM26.755 8.725C23.5583 8.725 21.96 11.0817 21.96 15.795C21.96 20.485 23.5467 22.83 26.72 22.83C29.8933 22.83 31.48 20.4733 31.48 15.76C31.48 11.07 29.905 8.725 26.755 8.725ZM49.0495 0.464999C51.0795 0.464999 52.8528 0.954999 54.3695 1.935C55.9095 2.89167 57.0995 4.30333 57.9395 6.17C58.8028 8.03667 59.2345 10.3 59.2345 12.96C59.2345 15.5733 58.8028 17.8133 57.9395 19.68C57.0995 21.5467 55.9095 22.97 54.3695 23.95C52.8528 24.93 51.0795 25.42 49.0495 25.42C47.0195 25.42 45.2345 24.9417 43.6945 23.985C42.1778 23.0283 40.9878 21.6167 40.1245 19.75C39.2845 17.8833 38.8645 15.6317 38.8645 12.995C38.8645 10.405 39.2845 8.165 40.1245 6.275C40.9878 4.385 42.1895 2.95 43.7295 1.97C45.2695 0.966665 47.0428 0.464999 49.0495 0.464999ZM49.0495 3.195C46.9495 3.195 45.3161 3.98833 44.1495 5.575C42.9828 7.16167 42.3995 9.635 42.3995 12.995C42.3995 16.3317 42.9828 18.7817 44.1495 20.345C45.3395 21.9083 46.9728 22.69 49.0495 22.69C53.4828 22.69 55.6995 19.4467 55.6995 12.96C55.6995 6.45 53.4828 3.195 49.0495 3.195ZM76.9792 0.885V3.58L65.0442 22.165H76.9792L76.5942 25H61.3342V22.34L73.3742 3.685H62.5942V0.885H76.9792ZM88.0392 6.135C90.6292 6.135 92.6358 6.99833 94.0592 8.725C95.5058 10.4517 96.2292 12.7967 96.2292 15.76C96.2292 17.6733 95.9025 19.365 95.2492 20.835C94.5958 22.2817 93.6508 23.4133 92.4142 24.23C91.1775 25.0233 89.7075 25.42 88.0042 25.42C85.4142 25.42 83.3958 24.5567 81.9492 22.83C80.5025 21.1033 79.7792 18.7583 79.7792 15.795C79.7792 13.8817 80.1058 12.2017 80.7592 10.755C81.4125 9.285 82.3575 8.15333 83.5942 7.36C84.8308 6.54333 86.3125 6.135 88.0392 6.135ZM88.0392 8.725C84.8425 8.725 83.2442 11.0817 83.2442 15.795C83.2442 20.485 84.8308 22.83 88.0042 22.83C91.1775 22.83 92.7642 20.4733 92.7642 15.76C92.7642 11.07 91.1892 8.725 88.0392 8.725Z" fill="#5A3A3A"/>
</svg>
